<?xml version="1.0" encoding="UTF-8"?>
<svg id="Livello_1" xmlns="http://www.w3.org/2000/svg" version="1.1" xmlns:xlink="http://www.w3.org/1999/xlink" viewBox="0 0 128 128">
  <!-- Generator: Adobe Illustrator 29.5.0, SVG Export Plug-In . SVG Version: 2.1.0 Build 137)  -->
  <defs>
    <style>
      .st0 {
        fill: url(#Sfumatura_senza_nome);
        stroke: #000;
      }

      .st0, .st1 {
        stroke-miterlimit: 10;
      }

      .st2, .st1 {
        fill: none;
      }

      .st1 {
        stroke: #1d1d1b;
      }
    </style>
    <linearGradient id="Sfumatura_senza_nome" data-name="Sfumatura senza nome" x1="56.71" y1="13.23" x2="69.41" y2="55.03" gradientTransform="translate(0 130) scale(1 -1)" gradientUnits="userSpaceOnUse">
      <stop offset="0" stop-color="#d83333"/>
      <stop offset="1" stop-color="#f041ff"/>
    </linearGradient>
  </defs>
  <g>
    <path class="st2" d="M47.7,107.1c-5.5-5-7.2-15.7-4.9-23.4,4,4.9,9.6,6.4,15.4,7.3,8.9,1.3,17.6.8,25.9-3.2l2.8-1.7c2.21,7.52-.7,15.61-7.2,20l-5.5,3.8c-5.6,3.8-7.2,8.2-5,14.7l.2.7c-2.74-1.12-5.05-3.08-6.6-5.6-1.68-2.55-2.58-5.54-2.6-8.6,0-1.5,0-3-.2-4.5-.5-3.7-2.2-5.3-5.5-5.4s-5.9,2-6.6,5.2c0,0-.2.7-.2.7Z"/>
    <path class="st1" d="M16,82.4s16.5-8,33-8l12.4-38.3c.5-2,1.8-3.2,3.3-3.2,1.6,0,3,1.3,3.4,3.2l12.4,38.3c19.6,0,33,8,33,8L85.5,6.4c-.8-2.3-2.2-3.7-4-3.7h-33.5c-1.8,0-3.1,1.4-4,3.7l-28,76Z"/>
  </g>
  <path class="st0" d="M47.7,107.1c-5.5-5-7.2-15.7-4.9-23.4,4,4.9,9.6,6.4,15.4,7.3,8.9,1.3,17.6.8,25.9-3.2l2.8-1.7c2.21,7.52-.7,15.61-7.2,20l-5.5,3.8c-5.6,3.8-7.2,8.2-5,14.7l.2.7c-2.74-1.12-5.05-3.08-6.6-5.6-1.68-2.55-2.58-5.54-2.6-8.6,0-1.5,0-3-.2-4.5-.5-3.7-2.2-5.3-5.5-5.4s-5.9,2-6.6,5.2c0,0-.2.7-.2.7Z"/>
</svg>